<?xml version="1.0" encoding="UTF-8"?><svg id="Layer_1" xmlns="http://www.w3.org/2000/svg" viewBox="0 0 21 21"><defs><style>.cls-1{fill:#006227;}.cls-1,.cls-2{stroke-width:0px;}.cls-2{fill:#fff;}</style></defs><path class="cls-1" d="M10.5,21C4.71,21,0,16.29,0,10.5S4.71,0,10.5,0s10.5,4.71,10.5,10.5-4.71,10.5-10.5,10.5"/><path class="cls-2" d="M12.9,12.44c1.05-.79.73-2.98.73-2.98,0,0-.09-.09-1.66.83-.53.31-.83.77-.99,1.23v-1.63c.28-.06,1.07-.26,1.92-.9,1.05-.79.73-2.98.73-2.98,0,0-.09-.09-1.66.83-.53.31-.83.77-.99,1.23v-1.17c.37-.38.82-1,.82-1.74,0-1.26-1.3-2.42-1.3-2.42,0,0-1.3,1.17-1.3,2.42,0,.74.45,1.35.82,1.74v1.17c-.16-.46-.46-.92-.99-1.23-1.58-.92-1.66-.83-1.66-.83,0,0-.32,2.19.73,2.98.85.64,1.64.84,1.92.9v1.63c-.16-.46-.46-.92-.99-1.23-1.58-.92-1.66-.83-1.66-.83,0,0-.32,2.19.73,2.98.85.64,1.64.84,1.92.9v1.63c-.16-.46-.46-.92-.99-1.23-1.58-.92-1.66-.83-1.66-.83,0,0-.32,2.19.73,2.98.85.64,1.64.84,1.92.9v1.47h.96v-1.47c.28-.06,1.07-.26,1.92-.9,1.05-.79.73-2.98.73-2.98,0,0-.09-.09-1.66.83-.53.31-.83.77-.99,1.23v-1.63c.28-.06,1.07-.26,1.92-.9"/></svg>