<?xml version="1.0" encoding="UTF-8"?><svg id="Layer_1" xmlns="http://www.w3.org/2000/svg" viewBox="0 0 21 21"><defs><style>.cls-1{fill:#006227;}.cls-1,.cls-2{stroke-width:0px;}.cls-2{fill:#fff;}</style></defs><path class="cls-1" d="M10.5,21C4.71,21,0,16.29,0,10.5S4.71,0,10.5,0s10.5,4.71,10.5,10.5-4.71,10.5-10.5,10.5"/><path class="cls-2" d="M15.97,12.19c.93-.42,1.57-1.36,1.57-2.44,0-1.16-.74-2.17-1.82-2.53-.22-1.98-1.89-3.5-3.9-3.5-1.14,0-2.19.48-2.93,1.32-.43-.35-.96-.53-1.52-.53-1.35,0-2.45,1.1-2.45,2.45,0,.03,0,.07,0,.1-1.15.53-1.91,1.69-1.91,2.97,0,1.81,1.47,3.28,3.28,3.28.22,0,.44-.02.66-.07.83.86,1.96,1.34,3.15,1.34.94,0,1.84-.31,2.57-.84-.02.11-.03.23-.03.35,0,1.22.99,2.21,2.21,2.21s2.21-.99,2.21-2.21c0-.81-.44-1.52-1.09-1.9M13.24,14.09c0-.89.72-1.61,1.61-1.61.27,0,.52.07.74.18l-1.95,2.48c-.24-.28-.39-.65-.39-1.05M14.85,15.7c-.22,0-.44-.05-.63-.13l1.92-2.43c.2.27.32.6.32.96,0,.89-.72,1.61-1.61,1.61"/><path class="cls-1" d="M13.14,8.32c-.04.05-.1.13-.1.22,0,.2.15.29.34.29h1.46c.17,0,.31-.09.31-.29s-.15-.29-.34-.29h-.8c.37-.47,1.05-1.07,1.05-1.68,0-.56-.43-.91-.97-.91s-1.03.44-1.03.99c0,.17.11.32.32.32.42,0,.18-.71.68-.71.18,0,.32.16.32.34,0,.16-.07.29-.15.41-.33.48-.73.88-1.09,1.31"/><path class="cls-1" d="M10.57,7.53c-1.37,0-2.32,1.08-2.32,2.48s.95,2.48,2.32,2.48,2.32-1.08,2.32-2.48-.96-2.48-2.32-2.48M10.57,11.55c-.85,0-1.27-.73-1.27-1.55s.42-1.55,1.27-1.55,1.27.73,1.27,1.55-.41,1.55-1.27,1.55"/><path class="cls-1" d="M7.53,11.23c-.28,0-.51.28-1.07.28-.83,0-1.27-.69-1.27-1.49s.43-1.53,1.27-1.53c.57,0,.75.24,1.03.24.25,0,.42-.21.42-.45,0-.59-.96-.75-1.45-.75-1.37,0-2.31,1.08-2.31,2.48s.95,2.48,2.31,2.48c.5,0,1.52-.15,1.52-.79,0-.15-.14-.46-.44-.46"/></svg>