<?xml version="1.0" encoding="UTF-8"?><svg id="Layer_1" xmlns="http://www.w3.org/2000/svg" viewBox="0 0 21 21"><defs><style>.cls-1{fill:#006227;}.cls-1,.cls-2{stroke-width:0px;}.cls-2{fill:#fff;fill-rule:evenodd;}</style></defs><path class="cls-1" d="M10.5,21C4.71,21,0,16.29,0,10.5S4.71,0,10.5,0s10.5,4.71,10.5,10.5-4.71,10.5-10.5,10.5"/><path class="cls-2" d="M14.44,5.18c.43.43.65.95.65,1.55,0,.61-.22,1.12-.65,1.55-.02.03-.05.05-.07.08.36.13.68.34.97.63.53.53.79,1.17.8,1.92,0,.75-.27,1.39-.8,1.92-.53.53-1.17.79-1.91.8h-1.79l.24,5.13h-2.67l.25-5.13h0s-1.79,0-1.79,0c-.75,0-1.38-.27-1.91-.8-.53-.53-.79-1.17-.79-1.92,0-.75.26-1.39.79-1.92.06-.06.12-.11.18-.17.12-.1.24-.19.37-.26.14-.08.28-.15.42-.2-.03-.02-.05-.05-.08-.08-.43-.43-.64-.95-.64-1.55,0-.03,0-.05,0-.08.02-.57.23-1.06.64-1.47.43-.43.95-.65,1.56-.65h.14s0-.06,0-.09c0-.61.22-1.13.65-1.56.43-.43.95-.64,1.55-.64.61,0,1.13.21,1.55.64.43.43.65.95.65,1.56,0,.03,0,.06,0,.09h.14c.61,0,1.12.22,1.55.65M8.22,7.59c-.09.03-.15.08-.2.16-.05.08-.06.17-.03.26.03.09.08.16.16.2l2.06,1.14v2.19c0,.08.02.15.08.21.05.06.12.1.19.11.08.02.15,0,.22-.03l2.78-1.53c.08-.04.13-.11.16-.2.02-.09.01-.17-.03-.25-.04-.08-.11-.14-.2-.16-.09-.03-.17-.02-.25.03l-2.29,1.26v-3.72l1.32-.72c.08-.04.13-.11.16-.2.03-.09.02-.17-.03-.25-.04-.08-.11-.14-.2-.16-.09-.03-.17-.02-.26.03l-.99.55v-1.92c0-.09-.03-.17-.1-.24-.07-.06-.14-.1-.24-.1-.09,0-.17.03-.24.1-.06.07-.1.14-.09.24v4.01l-1.74-.96c-.08-.04-.17-.05-.25-.03"/></svg>