<?xml version="1.0" encoding="UTF-8"?><svg id="Layer_1" xmlns="http://www.w3.org/2000/svg" viewBox="0 0 21 21"><defs><style>.cls-1,.cls-2,.cls-3{fill:#004c6c;}.cls-1,.cls-4{stroke-width:0px;}.cls-2{stroke-width:.2px;}.cls-2,.cls-3{stroke:#004c6c;stroke-miterlimit:10;}.cls-4{fill:#fff;}.cls-3{stroke-width:.15px;}</style></defs><path class="cls-1" d="M10.5,21C4.71,21,0,16.29,0,10.5S4.71,0,10.5,0s10.5,4.71,10.5,10.5-4.71,10.5-10.5,10.5"/><path class="cls-4" d="M10.64,4.54h2.9v1.75c0,.06.05.12.12.12h.75c.06,0,.12-.05.12-.12v-3.54c0-.06-.05-.12-.12-.12h-3.76c-.06,0-.12.05-.12.12v1.68c0,.06.05.12.12.12"/><path class="cls-4" d="M17.29,15.82h-.66V6.87c0-.06-.05-.12-.12-.12h-3.67c-.06,0-.12.05-.12.12v8.95h-.39V6.4h.66c.06,0,.12-.05.12-.12v-1.24c0-.06-.05-.12-.12-.12h-5.98c-.06,0-.12.05-.12.12v5.09c0,.06.05.12.12.12h2.58v5.56h-.44v-5.11c0-.06-.05-.12-.12-.12h-4.64c-.06,0-.12.05-.12.12v5.11h-.66c-.06,0-.12.05-.12.12v.04c0,.06.05.12.12.12h13.66c.06,0,.12-.05.12-.12v-.04c0-.06-.05-.12-.12-.12M15.59,9.42h-1.82v-.41h1.82v.41ZM15.59,10.69h-1.82v-.41h1.82v.41ZM15.59,8.15h-1.82v-.41h1.82v.41ZM11.16,13.1h-.54v-.8h.54v.8ZM11.16,11.19h-.54v-.8h.54v.8ZM10.62,8.49h.54v.8h-.54v-.8ZM10.62,6.58h.54v.8h-.54v-.8ZM8.77,8.49h.54v.8h-.54v-.8ZM8.77,6.58h.54v.8h-.54v-.8ZM8.17,11.38v1.52h-.54v-1.52h.54ZM6.99,11.38v1.52h-.54v-1.52h.54ZM7.31,15.82h-1.17v-2.05h1.17v2.05ZM5.81,11.38v1.52h-.54v-1.52h.54Z"/><rect class="cls-2" x="10.62" y="12.3" width=".54" height=".8"/><rect class="cls-2" x="10.62" y="10.4" width=".54" height=".8"/><rect class="cls-2" x="10.62" y="8.49" width=".54" height=".8"/><rect class="cls-2" x="10.62" y="6.58" width=".54" height=".8"/><rect class="cls-2" x="8.77" y="8.49" width=".54" height=".8"/><rect class="cls-2" x="8.77" y="6.58" width=".54" height=".8"/><rect class="cls-3" x="13.77" y="9.01" width="1.82" height=".41"/><rect class="cls-3" x="13.77" y="10.28" width="1.82" height=".41"/><rect class="cls-3" x="13.77" y="7.74" width="1.82" height=".41"/></svg>