<?xml version="1.0" encoding="UTF-8"?><svg id="Layer_1" xmlns="http://www.w3.org/2000/svg" viewBox="0 0 21 21"><defs><style>.cls-1{fill:#004c6c;}.cls-1,.cls-2{stroke-width:0px;}.cls-2{fill:#fff;}</style></defs><path class="cls-1" d="M10.51,21c-.31,0-.62-.01-.93-.04-2.79-.25-5.32-1.56-7.13-3.71C.65,15.1-.2,12.37.04,9.58c.23-2.63,1.43-5.06,3.39-6.84C5.37.97,7.87,0,10.49,0c.31,0,.62.01.93.04,2.79.25,5.32,1.56,7.13,3.71,1.8,2.15,2.66,4.87,2.41,7.67-.23,2.63-1.43,5.06-3.39,6.84-1.94,1.77-4.45,2.74-7.06,2.74"/><polygon class="cls-2" points="16.09 15.25 16.09 14.45 5.27 14.45 5.27 15.25 4.51 15.25 4.51 16.56 16.85 16.56 16.85 15.25 16.09 15.25"/><path class="cls-2" d="M15.51,7.43c0-2.3-1.6-4.22-3.75-4.71.86.81,1.45,2.58,1.47,4.71h2.29Z"/><path class="cls-2" d="M12.74,7.43c-.02-2.81-1.06-4.69-2.04-4.69s-2.02,1.88-2.04,4.69h4.08Z"/><path class="cls-2" d="M9.67,2.71c-2.18.47-3.81,2.4-3.81,4.72h2.33c.02-2.13.61-3.92,1.48-4.72"/><polygon class="cls-2" points="6.14 10.56 6.72 10.56 6.72 13.17 6.14 13.17 6.14 14.06 8.12 14.06 8.12 13.17 7.55 13.17 7.55 10.56 8.12 10.56 8.12 9.72 9.69 9.72 9.69 10.56 10.26 10.56 10.26 13.17 9.69 13.17 9.69 14.06 11.67 14.06 11.67 13.17 11.1 13.17 11.1 10.56 11.67 10.56 11.67 9.72 13.24 9.72 13.24 10.56 13.81 10.56 13.81 13.17 13.24 13.17 13.24 14.06 15.22 14.06 15.22 13.17 14.65 13.17 14.65 10.56 15.22 10.56 15.22 9.72 16.04 9.72 16.04 8.02 5.32 8.02 5.32 9.72 6.14 9.72 6.14 10.56"/></svg>