<?xml version="1.0" encoding="UTF-8"?><svg id="Layer_1" xmlns="http://www.w3.org/2000/svg" viewBox="0 0 21 21"><defs><style>.cls-1{fill:#721e52;}.cls-1,.cls-2{stroke-width:0px;}.cls-3{fill:none;stroke:#721e52;stroke-miterlimit:10;stroke-width:.23px;}.cls-2{fill:#fff;}</style></defs><path class="cls-1" d="M10.5,21C4.71,21,0,16.29,0,10.5S4.71,0,10.5,0s10.5,4.71,10.5,10.5-4.71,10.5-10.5,10.5"/><path class="cls-2" d="M5.63,12.43c-.69,0-1.24.56-1.24,1.24s.56,1.24,1.24,1.24,1.24-.56,1.24-1.24-.56-1.24-1.24-1.24M5.63,14.27c-.33,0-.59-.26-.59-.59s.26-.59.59-.59.59.26.59.59-.26.59-.59.59"/><path class="cls-2" d="M16.69,12.43c-.69,0-1.24.56-1.24,1.24s.56,1.24,1.24,1.24,1.24-.56,1.24-1.24-.56-1.24-1.24-1.24M16.69,14.27c-.33,0-.59-.26-.59-.59s.26-.59.59-.59.59.26.59.59-.26.59-.59.59"/><path class="cls-2" d="M17.25,10.63l-1.19-.17-1.52-1.96s-.07-.06-.12-.06h-2.29s0-1.82,0-1.82c0-.3-.24-.54-.54-.54H2.91c-.29,0-.53.24-.53.53v6.47c0,.27.22.48.48.48h1.31c0-.73.64-1.33,1.43-1.33s1.43.6,1.43,1.33h4.51s.01,0,.02,0c0,0,0,0,.01,0h3.69c0-.73.64-1.33,1.43-1.33s1.43.6,1.43,1.33h.26c.13,0,.23-.1.23-.23v-1.13c0-.79-.58-1.46-1.36-1.57M3.29,7.07h7.63l.35.67H2.99l.3-.67ZM11.14,11.73H3.09v-3.67h8.04v3.67ZM12.45,10.53v-1.34c0-.12.1-.23.23-.23h1.59c.07,0,.13.02.17.08l1.1,1.49h-3.09Z"/><path class="cls-2" d="M10.34,8.45h-.06c0,.4-.35.72-.79.72-.44,0-.79-.33-.79-.72h-.06c0,.39-.34.71-.77.72-.43-.01-.77-.33-.77-.72h-.06c0,.39-.34.71-.77.72-.43-.01-.77-.33-.77-.72h-.06c0,.39-.34.71-.77.72-.43-.01-.77-.33-.77-.72h-.06c0,.4-.36.73-.8.73l.03.02v.26c.32,0,.6-.13.8-.33.2.2.48.33.8.33s.6-.13.8-.33c.2.2.48.33.8.33s.6-.13.8-.33c.2.2.48.33.8.33s.6-.13.8-.33c.2.2.48.33.8.33s.63-.14.83-.36c.2.22.5.36.83.36v-.28c-.44,0-.8-.32-.8-.73Z"/><path class="cls-3" d="M16.69,12.24c-.79,0-1.43.64-1.43,1.43s.64,1.43,1.43,1.43,1.43-.64,1.43-1.43-.64-1.43-1.43-1.43"/><path class="cls-3" d="M5.63,12.24c-.79,0-1.43.64-1.43,1.43s.64,1.43,1.43,1.43,1.43-.64,1.43-1.43-.64-1.43-1.43-1.43"/></svg>