<?xml version="1.0" encoding="UTF-8"?><svg id="Layer_1" xmlns="http://www.w3.org/2000/svg" viewBox="0 0 21 21"><defs><style>.cls-1{fill:#721e52;}.cls-1,.cls-2{stroke-width:0px;}.cls-2{fill:#fff;}</style></defs><path class="cls-1" d="M10.51,21c-.31,0-.62-.01-.93-.04C3.81,20.45-.47,15.35.04,9.58c.23-2.63,1.43-5.06,3.39-6.84C5.37.97,7.87,0,10.49,0c.31,0,.62.01.93.04,5.77.51,10.05,5.61,9.54,11.38-.23,2.63-1.43,5.06-3.39,6.84-1.94,1.77-4.45,2.74-7.06,2.74"/><path class="cls-2" d="M19.31,9.01h-2.65c-.13,0-.23.1-.23.23v.66c0,.13.1.23.23.23h1c-3.75,3.54-9.2,4.64-14.06,2.78-.12-.05-.25.01-.29.13l-.24.62c-.02.06-.02.12,0,.17.02.06.07.1.13.12,1.66.63,3.41.96,5.19.96,3.72,0,7.34-1.44,10.03-3.96v.93c0,.13.1.23.23.23h.66c.13,0,.23-.1.23-.23v-2.65c0-.13-.1-.23-.23-.23"/><path class="cls-2" d="M16.87,13.43l-.5.31c-2.4,1.46-5.16,2.24-7.98,2.24-1.63,0-3.25-.26-4.81-.77-.06-.02-.12-.01-.17.01-.05.03-.1.07-.11.13l-.21.63c-.04.12.03.25.15.29,1.67.55,3.41.83,5.16.83,2.69,0,5.35-.66,7.72-1.92v.69c0,.13.1.23.23.23h.66c.13,0,.23-.1.23-.23v-2.25c0-.08-.04-.16-.12-.2-.07-.04-.16-.04-.23,0"/><path class="cls-2" d="M9.03,12.19c2.58,0,4.67-2.09,4.67-4.67-.06-2.49-1.93-4.49-4.43-4.66h-.24c-2.58,0-4.67,2.09-4.67,4.66s2.09,4.67,4.67,4.67"/><path class="cls-1" d="M8.49,10.72c-.05,0-.11-.01-.11-.12v-.51c-.68-.28-1.03-.75-1.1-1.49,0-.08.03-.12.11-.14l.82-.19.11.09c.03.32.14.65.65.65.32,0,.47-.12.55-.21.07-.1.1-.22.08-.33-.07-.29-.41-.41-.81-.55-.62-.21-1.39-.48-1.41-1.49,0-.11-.02-1.11.99-1.39l.08-.58c0-.1.03-.13.13-.13h.87c.1,0,.13.03.13.13v.5c.84.32,1.05.94,1.1,1.42,0,.08-.01.12-.1.14l-.82.2-.12-.1c-.08-.37-.3-.57-.65-.57-.19,0-.32.07-.41.18-.07.09-.09.2-.06.3.06.27.38.39.79.54.66.24,1.48.54,1.5,1.57,0,.01,0,1.11-1.2,1.4l-.08.58c0,.1-.03.13-.13.13h-.89Z"/></svg>