<?xml version="1.0" encoding="UTF-8"?><svg id="Layer_1" xmlns="http://www.w3.org/2000/svg" viewBox="0 0 21 21"><defs><style>.cls-1{stroke:#006227;stroke-miterlimit:10;stroke-width:.2px;}.cls-1,.cls-2{fill:#006227;}.cls-2,.cls-3{stroke-width:0px;}.cls-3{fill:#fff;}</style></defs><path class="cls-2" d="M10.5,21C4.71,21,0,16.29,0,10.5S4.71,0,10.5,0s10.5,4.71,10.5,10.5-4.71,10.5-10.5,10.5"/><path class="cls-3" d="M11,14.16h-5.58c-.08,0-.15.07-.15.15v.87c0,.08.07.15.15.15h5.58c.35,0,.63.28.63.63s-.28.63-.63.63-.63-.28-.63-.63c0-.08-.07-.15-.15-.15h-.87c-.08,0-.15.07-.15.15,0,1,.81,1.81,1.8,1.81s1.8-.81,1.8-1.81-.81-1.8-1.8-1.8"/><path class="cls-3" d="M14.73,8.06c-.08,0-.15.07-.15.15v.87c0,.08.07.15.15.15.88,0,1.59.71,1.59,1.59s-.71,1.59-1.59,1.59H5.42c-.08,0-.15.07-.15.15v.87c0,.08.07.15.15.15h9.31c1.53,0,2.77-1.24,2.77-2.77s-1.24-2.77-2.77-2.77"/><path class="cls-3" d="M8.12,11.56c1.56,0,2.82-1.16,2.82-3.14,0-1.14-.95-2.44-1.48-3.26-.81-1.26-1.34-2.46-1.34-2.46,0,0-.52,1.21-1.33,2.47-.53.83-1.48,2.13-1.48,3.26,0,1.98,1.26,3.14,2.82,3.14M5.9,9.2c-.03-.07-.06-.19-.06-.37-.03-.74.21-1.58.56-2.24.27-.51.44-.78.52-.91.05-.08.07-.07.05.03-.02.1-.07.25-.15.47-.16.43-.46,1.39-.5,1.82-.03.39-.02.83,0,1.06.02.18-.04.28-.16.31-.1.03-.21-.04-.26-.17"/><path class="cls-1" d="M6,9.2c-.03-.07-.06-.19-.06-.37-.03-.74.21-1.58.56-2.24.27-.51.44-.78.52-.91.05-.08.07-.07.05.03-.02.1-.07.25-.15.47-.16.43-.46,1.39-.5,1.82-.03.39-.02.83,0,1.06.02.18-.04.28-.16.31-.1.03-.21-.04-.26-.17"/></svg>