<?xml version="1.0" encoding="UTF-8"?><svg id="Layer_1" xmlns="http://www.w3.org/2000/svg" viewBox="0 0 21 21"><defs><style>.cls-1{fill:#004c6c;}.cls-1,.cls-2{stroke-width:0px;}.cls-2{fill:#fff;}</style></defs><path class="cls-1" d="M10.5,21C4.71,21,0,16.29,0,10.5S4.71,0,10.5,0s10.5,4.71,10.5,10.5-4.71,10.5-10.5,10.5"/><path class="cls-2" d="M15.95,10.52c-.61.38-1.34.61-2.11.61-2.2,0-4-1.79-4-4,0-.76.22-1.47.59-2.08l-.38-.37c-.11-.11-.29-.11-.4,0l-2.26,2.24s-.08.03-.08-.04v-1.15c0-.1-.08-.19-.19-.19h-1.44c-.1,0-.19.08-.19.19v2.96c0,.07-.04.16-.08.2l-2.33,2.31c-.11.11-.11.28,0,.39l.62.61c.11.11.29.11.4,0l.79-.79s.08-.03.08.04v5.28c0,.15.12.28.28.28h2.92c.13,0,.24-.11.24-.24v-4.2c0-.13.11-.24.24-.24h2.45c.13,0,.24.11.24.24v4.2c0,.13.11.24.24.24h2.87c.15,0,.28-.13.28-.28v-5.3c0-.07.04-.08.08-.04l.81.81c.11.11.29.11.4,0l.61-.61c.11-.11.11-.28,0-.39l-.69-.69Z"/><path class="cls-2" d="M13.84,10.66c1.94,0,3.52-1.58,3.52-3.52s-1.58-3.52-3.52-3.52-3.52,1.58-3.52,3.52,1.58,3.52,3.52,3.52"/><path class="cls-1" d="M13.84,3.62c1.94,0,3.52,1.58,3.52,3.52s-1.58,3.52-3.52,3.52-3.52-1.58-3.52-3.52,1.58-3.52,3.52-3.52M13.84,3.12c-2.22,0-4.02,1.8-4.02,4.02s1.8,4.02,4.02,4.02,4.02-1.8,4.02-4.02-1.8-4.02-4.02-4.02h0Z"/><path class="cls-1" d="M13.36,9.97s-.1-.01-.1-.11v-.45c-.61-.25-.91-.66-.98-1.32,0-.07.02-.11.09-.12l.73-.17.1.08c.03.29.12.58.58.58.29,0,.42-.11.48-.19.07-.09.09-.2.07-.3-.06-.26-.37-.37-.72-.49-.55-.19-1.23-.42-1.24-1.32,0-.1-.02-.98.88-1.23l.07-.51c0-.08.03-.11.11-.11h.77c.09,0,.11.03.11.11v.44c.74.28.93.83.97,1.25,0,.07-.01.1-.09.12l-.73.18-.11-.09c-.07-.33-.27-.51-.57-.51-.17,0-.29.06-.36.16-.06.08-.08.18-.06.27.05.24.34.34.7.48.59.21,1.31.48,1.32,1.39,0,.01,0,.98-1.06,1.24l-.07.52c0,.09-.03.11-.11.11h-.79Z"/></svg>