<?xml version="1.0" encoding="UTF-8"?><svg id="Layer_1" xmlns="http://www.w3.org/2000/svg" viewBox="0 0 21 21"><defs><style>.cls-1{fill:#433c59;}.cls-1,.cls-2{stroke-width:0px;}.cls-2{fill:#fff;}</style></defs><path class="cls-1" d="M10.51,21c-.31,0-.62-.01-.93-.04-2.79-.25-5.32-1.57-7.13-3.71C.65,15.1-.2,12.37.04,9.58c.23-2.63,1.43-5.06,3.39-6.84C5.37.97,7.87,0,10.49,0c.31,0,.62.01.93.04,5.77.51,10.05,5.61,9.54,11.38-.23,2.63-1.43,5.06-3.39,6.84-1.94,1.77-4.45,2.74-7.06,2.74h0Z"/><path class="cls-2" d="M8.26,4.23h.19c.06,0,.12-.05.12-.12v-1.08c0-.06-.05-.12-.12-.12h-.19c-.06,0-.12.05-.12.12v1.08c0,.06.05.12.12.12"/><path class="cls-2" d="M8.26,6.72h.19c.06,0,.12-.05.12-.12v-1.08c0-.06-.05-.12-.12-.12h-.19c-.06,0-.12.05-.12.12v1.08c0,.06.05.12.12.12"/><path class="cls-2" d="M8.45,17.33h-.19c-.06,0-.12.05-.12.12v1.08c0,.06.05.12.12.12h.19c.06,0,.12-.05.12-.12v-1.08c0-.06-.05-.12-.12-.12"/><path class="cls-2" d="M8.45,11.31h-.19c-.06,0-.12.05-.12.12v1.08c0,.06.05.12.12.12h.19c.06,0,.12-.05.12-.12v-1.08c0-.06-.05-.12-.12-.12"/><path class="cls-2" d="M8.45,15.32h-.19c-.06,0-.12.05-.12.12v1.08c0,.06.05.12.12.12h.19c.06,0,.12-.05.12-.12v-1.08c0-.06-.05-.12-.12-.12"/><path class="cls-2" d="M8.45,13.32h-.19c-.06,0-.12.05-.12.12v1.08c0,.06.05.12.12.12h.19c.06,0,.12-.05.12-.12v-1.08c0-.06-.05-.12-.12-.12"/><path class="cls-2" d="M19.04,8.37h-4.26s0-.02,0-.03v-.19c0-.06-.05-.12-.12-.12h-.25v-1.22h.25c.06,0,.12-.05.12-.12v-.19c0-.06-.05-.12-.12-.12h-.25v-1.22h.25c.06,0,.12-.05.12-.12v-.19c0-.06-.05-.12-.12-.12h-.25v-1.22h.25c.06,0,.12-.05.12-.12v-.19c0-.06-.05-.12-.12-.12h-.25v-.43c0-.06-.05-.12-.12-.12h-.47c-.06,0-.12.05-.12.12v.43h-2.03v-.43c0-.06-.05-.12-.12-.12h-.47c-.06,0-.12.05-.12.12v.43h-.11c-.06,0-.12.05-.12.12v.19c0,.06.05.12.12.12h.11v1.22h-.11c-.06,0-.12.05-.12.12v.19c0,.06.05.12.12.12h.11v1.22h-.11c-.06,0-.12.05-.12.12v.19c0,.06.05.12.12.12h.11v1.22h-.11c-.06,0-.12.05-.12.12v.19s0,.02,0,.03h-.72V2.67c0-.06-.05-.12-.12-.12h-.47c-.06,0-.12.05-.12.12v5.69h-.77v-.47c0-.06-.05-.12-.12-.12h-.19c-.06,0-.12.05-.12.12v.47h-.74V2.67c0-.06-.05-.12-.12-.12h-.47c-.06,0-.12.05-.12.12v5.69H2.04c-.06,0-.12.05-.12.12v1.88c0,.06.05.12.12.12h.87v1.37c0,.06.05.12.12.12h1.57c.05,0,.1-.03.11-.08l.47-1.62h1.53v8.25c0,.06.05.12.12.12h.47c.06,0,.12-.05.12-.12v-8.25h.74v.15c0,.06.05.12.12.12h.19c.06,0,.12-.05.12-.12v-.15h.77v8.25c0,.06.05.12.12.12h.47c.06,0,.12-.05.12-.12v-8.25h.94v1.05h-.11c-.06,0-.12.05-.12.12v.19c0,.06.05.12.12.12h.11v1.22h-.11c-.06,0-.12.05-.12.12v.19c0,.06.05.12.12.12h.11v1.22h-.11c-.06,0-.12.05-.12.12v.19c0,.06.05.12.12.12h.11v1.22h-.11c-.06,0-.12.05-.12.12v.19c0,.06.05.12.12.12h.11v1.22h-.11c-.06,0-.12.05-.12.12v.19c0,.06.05.12.12.12h.11v.22c0,.06.05.12.12.12h.47c.06,0,.12-.05.12-.12v-.22h2.03v.22c0,.06.05.12.12.12h.47c.06,0,.12-.05.12-.12v-.22h.25c.06,0,.12-.05.12-.12v-.19c0-.06-.05-.12-.12-.12h-.25v-1.22h.25c.06,0,.12-.05.12-.12v-.19c0-.06-.05-.12-.12-.12h-.25v-1.22h.25c.06,0,.12-.05.12-.12v-.19c0-.06-.05-.12-.12-.12h-.25v-1.22h.25c.06,0,.12-.05.12-.12v-.19c0-.06-.05-.12-.12-.12h-.25v-1.22h.25c.06,0,.12-.05.12-.12v-.19c0-.06-.05-.12-.12-.12h-.25v-1.05h1.45l.63,1.63s.06.08.11.08h1.62c.06,0,.12-.05.12-.12v-1.37h.7c.06,0,.12-.05.12-.12v-1.88c0-.06-.05-.12-.12-.12M13.71,17.87h-2.02v-1.22h2.02v1.22ZM13.71,16.23h-2.02v-1.22h2.02v1.22ZM13.71,14.59h-2.02v-1.22h2.02v1.22ZM13.71,12.95h-2.02v-1.22h2.02v1.22ZM13.71,11.31h-2.02v-1.05h2.02v1.05ZM11.68,3.53h2.02v1.22h-2.02v-1.22ZM11.68,5.17h2.02v1.22h-2.02v-1.22ZM11.68,6.81h2.02v1.22h-2.02v-1.22Z"/></svg>