<?xml version="1.0" encoding="UTF-8"?><svg id="Layer_1" xmlns="http://www.w3.org/2000/svg" viewBox="0 0 21 21"><defs><style>.cls-1{fill:#433c59;}.cls-1,.cls-2{stroke-width:0px;}.cls-3{fill:none;stroke:#fff;stroke-linecap:round;stroke-linejoin:round;stroke-width:.51px;}.cls-2{fill:#fff;}</style></defs><path class="cls-1" d="M10.51,21c-.31,0-.62-.01-.93-.04C3.81,20.45-.47,15.35.04,9.58.52,4.12,5.01,0,10.49,0c.31,0,.62.01.93.04,2.79.25,5.32,1.56,7.13,3.71,1.8,2.15,2.66,4.87,2.41,7.67-.47,5.37-5.06,9.58-10.45,9.58h0Z"/><path class="cls-2" d="M16.52,3.47c-.23-.14-.52-.07-.67.15l-1.23,1.95c-.49-.43-1.1-.65-1.85-.65-.87,0-1.56.3-2.08.9-.52.6-.78,1.4-.78,2.41v2.64c0,.64.1,1.2.31,1.67l-3.15,5-2.05-3.41c-.14-.23-.43-.3-.66-.17-.23.14-.3.43-.17.66l2.45,4.09c.09.14.24.23.41.23h0c.17,0,.32-.09.41-.23l3.34-5.31c.51.51,1.16.76,1.96.76.87,0,1.57-.3,2.09-.89.52-.59.78-1.4.78-2.42v-2.64c0-.72-.13-1.33-.4-1.84l1.42-2.25c.14-.23.07-.52-.15-.67M11.14,7.97c0-.65.14-1.16.43-1.53.28-.37.69-.56,1.21-.56s.94.19,1.22.56c.01.02.03.04.04.06l-2.9,4.61v-3.13ZM14.43,7.97v3.14c0,.65-.14,1.16-.43,1.54-.28.38-.69.57-1.22.57s-.92-.19-1.21-.57c-.05-.07-.1-.14-.14-.21l2.99-4.74c0,.09,0,.18,0,.27"/><path class="cls-3" d="M16.52,3.47c-.23-.14-.52-.07-.67.15l-1.23,1.95c-.49-.43-1.1-.65-1.85-.65-.87,0-1.56.3-2.08.9-.52.6-.78,1.4-.78,2.41v2.64c0,.64.1,1.2.31,1.67l-3.15,5-2.05-3.41c-.14-.23-.43-.3-.66-.17-.23.14-.3.43-.17.66l2.45,4.09c.09.14.24.23.41.23h0c.17,0,.32-.09.41-.23l3.34-5.31c.51.51,1.16.76,1.96.76.87,0,1.57-.3,2.09-.89.52-.59.78-1.4.78-2.42v-2.64c0-.72-.13-1.33-.4-1.84l1.42-2.25c.14-.23.07-.52-.15-.67ZM11.14,7.97c0-.65.14-1.16.43-1.53.28-.37.69-.56,1.21-.56s.94.19,1.22.56c.01.02.03.04.04.06l-2.9,4.61v-3.13ZM14.43,7.97v3.14c0,.65-.14,1.16-.43,1.54-.28.38-.69.57-1.22.57s-.92-.19-1.21-.57c-.05-.07-.1-.14-.14-.21l2.99-4.74c0,.09,0,.18,0,.27Z"/></svg>