<?xml version="1.0" encoding="UTF-8"?><svg id="Layer_1" xmlns="http://www.w3.org/2000/svg" viewBox="0 0 21 21"><defs><style>.cls-1{fill:#433c59;}.cls-1,.cls-2{stroke-width:0px;}.cls-3{fill:none;stroke:#433c59;stroke-miterlimit:10;stroke-width:.3px;}.cls-2{fill:#fff;}</style></defs><path class="cls-1" d="M10.51,21c-.31,0-.62-.01-.93-.04C3.81,20.45-.47,15.35.04,9.58c.23-2.63,1.43-5.06,3.39-6.84C5.37.97,7.87,0,10.49,0c.31,0,.62.01.93.04,5.77.51,10.05,5.61,9.54,11.38-.23,2.63-1.43,5.06-3.39,6.84-1.94,1.77-4.45,2.74-7.06,2.74h0Z"/><path class="cls-2" d="M6.44,7.68s0-.01,0-.02l.21-1.26c.02-.13,0-.25-.03-.36-.04-.11-.1-.22-.18-.3,0,0,0,0,0,0-.06-.05-.12-.1-.19-.14,0,0,0,0,0,0-.14-.07-.28-.09-.43-.08-.03,0-.06,0-.09.01-.22.05-.41.19-.52.41-.04.08-.06.16-.07.24,0,.03,0,.05,0,.08,0,.02,0,.05,0,.07,0,.02,0,.05,0,.07,0,.05.02.09.03.14.02.06.05.12.09.18.03.05.07.09.11.13l.62.6.3.29s.03.02.04.02c.02,0,.04,0,.06,0,.03-.01.06-.04.07-.07M5.96,6.48c-.11.03-.22-.02-.25-.13-.04-.11.02-.22.13-.25.11-.03.22.02.25.13.03.11-.02.22-.13.25"/><path class="cls-2" d="M10.99,12.27c-.23,0-.46-.05-.67-.16-.36-.18-.62-.48-.75-.86l-1.44-4.34c-.03-.1-.1-.18-.19-.22s-.2-.05-.29-.02c-.2.07-.31.29-.25.49v.03c.13.35-.06.73-.41.84l-.47.16s-.07,0-.11,0c-.03-.02-.06-.05-.07-.08s0-.07,0-.11c.02-.03.05-.06.08-.07l.47-.15c.1-.03.18-.1.22-.19.05-.09.05-.2.02-.3v-.03c-.07-.17-.05-.35.03-.51.08-.16.22-.28.39-.33.35-.12.73.07.84.42l1.44,4.33c.1.31.32.55.6.7.29.15.62.17.92.07l.33-.11c.07-.03.15.02.18.09.01.04,0,.07,0,.11-.02.03-.05.06-.08.07l-.33.11c-.15.05-.31.08-.47.08ZM7.77,6.57c.07,0,.14.02.21.05.11.06.19.15.23.27l1.44,4.34c.12.36.37.65.71.82.34.17.72.2,1.08.08l.33-.11s.03-.02.04-.03,0-.03,0-.05c0-.02-.02-.03-.03-.04s-.03,0-.05,0l-.33.11c-.32.11-.67.08-.98-.07-.31-.15-.53-.42-.64-.74l-1.44-4.33c-.05-.15-.16-.27-.3-.34-.14-.07-.3-.08-.45-.03-.31.1-.48.44-.38.75v.03c.09.24-.04.5-.28.58l-.47.15s-.03.02-.04.03,0,.03,0,.05c0,.02.02.03.03.04.02,0,.03,0,.05,0l.47-.16c.15-.05.27-.16.34-.3.07-.14.08-.3.03-.45v-.03c-.09-.24.04-.5.28-.58.05-.02.1-.02.14-.02Z"/><path class="cls-2" d="M7.64,6.63c.22-.07.46.05.53.27l1.44,4.34c.25.76,1.08,1.17,1.84.92l.33-.11c.05-.02.08-.08.07-.13-.02-.05-.08-.08-.13-.07l-.33.11c-.65.22-1.36-.14-1.57-.79l-1.44-4.34c-.11-.33-.47-.51-.8-.4-.33.11-.51.47-.4.8v.03c.08.22-.04.46-.26.53l-.47.16c-.05.02-.08.08-.07.13.02.05.08.08.13.07l.47-.16c.33-.11.51-.47.4-.8v-.03c-.08-.22.04-.46.26-.53"/><path class="cls-2" d="M8.14,18.41c-.5,0-.82-.3-1.03-.92L3.16,5.58c-.28-.84-.03-1.34.81-1.62l5.73-1.9c.43-.14.74-.14.99,0,.23.14.4.39.55.84l1.5,4.52-.18.11c-.14-.13-.31-.22-.5-.26h-.1s-.04-.08-.04-.08l-1.11-3.35c-.22-.67-.49-.81-1.1-.61l-5.06,1.68c-.64.21-.8.53-.59,1.17l3.46,10.46c.21.64.53.8,1.17.59l4.98-1.65.05.07c.18.27.32.46.42.57.04.05.09.1.15.17l.12.12-5.7,1.89c-.22.07-.41.11-.59.11ZM10.27,2.17c-.14,0-.3.03-.49.1l-5.73,1.9c-.73.24-.92.62-.68,1.34l3.95,11.91c.24.73.62.92,1.34.68l5.37-1.78s-.03-.04-.05-.05c-.09-.11-.22-.28-.39-.52l-4.83,1.6c-.75.25-1.2.02-1.45-.73L3.86,6.15c-.13-.38-.13-.68-.01-.91.12-.23.36-.41.74-.53l5.06-1.68c.73-.24,1.12-.03,1.38.75l1.09,3.29c.11.02.22.06.32.11l-1.4-4.21c-.18-.56-.4-.8-.77-.8Z"/><path class="cls-2" d="M13.64,15.61l-4.9,1.63c-.7.23-1.08.04-1.31-.66L3.96,6.12c-.23-.7-.04-1.08.66-1.31l5.06-1.68c.7-.23,1.01-.01,1.24.68l1.11,3.35s.04,0,.05,0c.21.04.4.14.55.28l-1.5-4.52c-.26-.79-.61-1.03-1.4-.77l-5.73,1.9c-.79.26-1,.69-.74,1.48l3.95,11.91c.26.79.69,1,1.48.74l5.53-1.83c-.06-.07-.12-.13-.16-.17-.12-.14-.28-.38-.42-.58"/><path class="cls-2" d="M19.75,15.13c-.14-.16-2.14-4.93-2.74-6.01-.1-.19-.28-.32-.48-.37-.67-.17-2.4-.6-3.5-.81.87,1.3,2.79,4.22,2.83,4.25.06.03,0,.15-.04.28-.01-.02-.08-.05-.1-.07l-3.06-4.65c-.29-.44-.88-.55-1.32-.26-.4.27-.53.78-.33,1.2l.36.67s-.01,0-.02,0c-.02,0-.04-.01-.06-.02-.34-.08-.7.08-.87.4,0,.02-.02.03-.02.05-.07.18-.08.37-.02.54,0,.02.02.04.02.06.03.06.07.13.11.18,0,.01.02.02.03.03,0,.01.02.02.03.03l.92.89s0,0,.01,0c.03.02.06.02.09.01.02,0,.04-.03.06-.05,0-.01.01-.02.01-.04l.1-.63.09-.55.62,1.16c.19.36.31.75.35,1.15.06.68.24,1.81.68,2.52.04.07.45.7.68.97.27.33,1.24,1.19,1.4,1.32l2.18.9,2.11-2.35-.13-.82ZM11.19,10.28c-.11.03-.22-.02-.25-.13-.03-.11.02-.22.13-.25.11-.03.22.02.25.13.03.11-.02.22-.13.25"/><path class="cls-1" d="M15.69,12.33l-2.01-2.97-1-1.48c-.26-.51-.79-.79-1.28-.47,0,0-.17-.25-.17-.25.29-.19.67-.24.99-.11.34.11.55.44.69.67l.99,1.49,1.98,2.99-.2.12h0Z"/><path class="cls-3" d="M13.34,15.17c.04.07.45.7.68.97.27.33,1.24,1.19,1.4,1.32"/></svg>