<?xml version="1.0" encoding="UTF-8"?><svg id="Layer_1" xmlns="http://www.w3.org/2000/svg" viewBox="0 0 21 21"><defs><style>.cls-1{fill:#433c59;}.cls-1,.cls-2{stroke-width:0px;}.cls-2{fill:#fff;}</style></defs><path class="cls-1" d="M10.51,21c-.31,0-.62-.01-.93-.04C3.81,20.45-.47,15.35.04,9.58c.23-2.63,1.43-5.06,3.39-6.84C5.37.97,7.87,0,10.49,0c.31,0,.62.01.93.04,5.77.51,10.05,5.61,9.54,11.38-.23,2.63-1.43,5.06-3.39,6.84-1.94,1.77-4.45,2.74-7.06,2.74h0Z"/><path class="cls-2" d="M16.88,6.3c-.01-.17-.14-.3-.3-.34-3.75-.72-5.27-1.86-5.81-2.42-.15-.15-.39-.15-.54,0-.54.56-2.06,1.7-5.81,2.42-.17.03-.29.17-.3.34-.13,1.47-.34,8.88,6.11,11.47.17.07.37.07.54,0,6.45-2.6,6.24-10,6.11-11.47M15.29,11.3c-.79,2.54-2.32,4.33-4.55,5.34-.15.07-.32.07-.47,0-2.23-1.01-3.76-2.8-4.55-5.34-.51-1.62-.59-3.17-.58-4.1,0-.18.12-.33.3-.37,2.5-.57,3.99-1.33,4.85-1.95.13-.09.31-.09.44,0,.86.62,2.35,1.38,4.85,1.95.17.04.3.19.3.37,0,.93-.07,2.48-.58,4.1"/><path class="cls-2" d="M12.81,9.45h-.03c0-.67-.01-1.3-.29-1.79-.16-.29-.41-.51-.73-.65-.33-.15-.75-.22-1.28-.22s-.94.07-1.28.22c-.32.14-.56.36-.73.65-.27.49-.29,1.12-.29,1.79h-.03c-.3,0-.55.24-.55.55v3.33c0,.3.25.55.55.55h4.63c.3,0,.55-.24.55-.55v-3.33c0-.3-.25-.55-.55-.55M10.98,12.76h-.95l.27-1.13c-.19-.08-.33-.27-.33-.5,0-.3.24-.54.54-.54s.54.24.54.54c0,.22-.13.41-.32.49l.26,1.13ZM8.76,9.59c0-.62.01-1.15.22-1.52.14-.25.45-.58,1.52-.58s1.38.33,1.52.58c.21.37.22.9.22,1.52h-3.47Z"/><path class="cls-1" d="M11.05,12.92h-1.1l.31-1.3c-.22-.09-.38-.31-.38-.57,0-.34.28-.62.62-.62s.62.28.62.62c0,.25-.15.47-.37.57l.29,1.3Z"/></svg>