<?xml version="1.0" encoding="UTF-8"?><svg id="Layer_1" xmlns="http://www.w3.org/2000/svg" viewBox="0 0 21 21"><defs><style>.cls-1{fill:#721e52;}.cls-1,.cls-2{stroke-width:0px;}.cls-2{fill:#fff;}</style></defs><path class="cls-1" d="M10.5,21C4.71,21,0,16.29,0,10.5S4.71,0,10.5,0s10.5,4.71,10.5,10.5-4.71,10.5-10.5,10.5"/><path class="cls-2" d="M10.85,12.46l4.7-2.57c-.04-.1-.06-.21-.06-.33,0-.07,0-.14.02-.21l-2.71-1.08c-.12.16-.32.27-.54.27-.04,0-.08,0-.12-.01l-1.69,3.56c.15.1.29.22.39.37"/><path class="cls-2" d="M10.86,15.76l-.63-1.16c-.16.06-.34.1-.52.1-.42,0-.79-.18-1.05-.47l-1.25.87c.03.07.04.15.04.23l3.12.81c.07-.15.17-.28.29-.38"/><path class="cls-2" d="M8.08,6.64c-.08,0-.15,0-.22-.02l-1.41,3.44s.09.07.12.12l5.04-2.2s0-.07,0-.1c0-.05,0-.11.02-.16l-2.74-1.47c-.18.24-.47.39-.8.39"/><path class="cls-2" d="M7.2,14.82l1.25-.87c-.1-.2-.16-.42-.16-.66,0-.25.07-.49.18-.69l-2.01-1.48s-.1.07-.15.09l.53,3.46c.14.01.26.07.37.16"/><path class="cls-2" d="M8.68,12.32c.26-.27.62-.44,1.03-.44.16,0,.31.03.45.07l1.69-3.56s-.07-.06-.09-.1l-5.04,2.2s0,.07,0,.1c0,.09-.02.17-.05.25l2.01,1.48Z"/><path class="cls-2" d="M12.65,7.31c.18.12.3.33.3.56,0,.03,0,.06,0,.08l2.71,1.08c.1-.17.25-.3.43-.39l-1.17-4.3c-.32-.23-.66-.43-1.01-.61l-1.25,3.58Z"/><path class="cls-2" d="M5.82,9.95c.07-.02.14-.04.22-.04.03,0,.06,0,.09,0l1.41-3.44c-.15-.09-.27-.23-.36-.39l-2.94.94s0,.02,0,.03c0,.14-.04.27-.12.38l1.69,2.5Z"/><path class="cls-2" d="M10.47,16.55s0-.06,0-.08l-3.13-.81c-.09.16-.24.27-.41.32v1.2c.78.42,1.64.7,2.56.82l1.11-.94c-.09-.15-.14-.32-.14-.51"/><path class="cls-2" d="M9.09,5.63c0,.11-.02.22-.05.32l2.74,1.47c.12-.13.3-.22.49-.22.02,0,.04,0,.05,0l1.26-3.61c-.37-.16-.75-.3-1.14-.4l-3.43,2.08c.04.11.07.24.07.37"/><path class="cls-2" d="M6.5,14.71l-.53-3.46c-.15-.02-.28-.08-.39-.18l-2.36,1.49c.2.7.5,1.36.88,1.96l2.07.48c.07-.13.19-.24.33-.3"/><path class="cls-2" d="M7.67,4.7c.12-.05.26-.09.41-.09.3,0,.58.14.76.35l3.13-1.89c-.47-.09-.96-.14-1.46-.14-1.24,0-2.42.3-3.45.83l.62.94Z"/><path class="cls-2" d="M4.14,6.71l2.94-.94s-.01-.09-.01-.14c0-.29.12-.55.32-.73l-.64-.97c-1.11.64-2.05,1.55-2.72,2.65.04.04.08.09.11.14"/><path class="cls-2" d="M5.4,10.79c-.02-.06-.03-.13-.03-.2,0-.17.06-.32.17-.44l-1.67-2.47c-.09.04-.19.07-.29.07-.04,0-.08,0-.12-.01-.34.86-.52,1.79-.52,2.77,0,.59.07,1.17.2,1.72l2.27-1.43Z"/><path class="cls-2" d="M15.6,15.92l-3.11.61s0,.01,0,.02c0,.56-.45,1.01-1.01,1.01-.25,0-.47-.09-.65-.24l-.86.73c.18.01.35.02.53.02,2,0,3.81-.77,5.16-2.04-.02-.03-.05-.07-.06-.11"/><path class="cls-2" d="M6.59,15.98c-.28-.07-.49-.33-.5-.63l-1.71-.4c.59.82,1.35,1.51,2.21,2.03v-1.01Z"/><path class="cls-2" d="M11.48,15.54c.43,0,.8.27.94.65l3.12-.61s0,0,0,0l-4.58-1.65c-.1.2-.25.38-.44.51l.63,1.16c.1-.03.21-.05.33-.05"/><path class="cls-2" d="M17.24,10.26c-.16.17-.37.28-.61.31l-.23,4.43s.1.04.14.06c.9-1.19,1.45-2.65,1.52-4.24l-.82-.55Z"/><path class="cls-2" d="M16.06,14.98l.23-4.43c-.23-.05-.43-.18-.57-.36l-4.7,2.57c.06.16.1.34.1.52,0,.11-.01.21-.04.31l4.58,1.65c.09-.13.24-.23.4-.27"/><path class="cls-2" d="M16.41,8.56s.06,0,.1,0c.09,0,.17.01.25.03l.59-1.31c-.47-1-1.15-1.88-1.99-2.58l1.06,3.87Z"/><path class="cls-2" d="M17.07,8.73c.27.18.44.49.44.84,0,.15-.03.29-.09.41l.64.43c-.01-.95-.2-1.86-.53-2.7l-.46,1.03Z"/></svg>